<?xml version='1.0' encoding='utf-8'?>
<svg xmlns="http://www.w3.org/2000/svg" clip-rule="evenodd" fill-rule="evenodd" stroke-linejoin="round" stroke-miterlimit="2" version="1.1" viewBox="0 0 500 500"> <g transform="matrix(1.1185 0 0 1.1185 -29.626 -65.304)"> <path d="m200.96 136.33c9.316-18.538 28.29-30.238 49.038-30.238s39.722 11.7 49.038 30.238c36.957 73.539 87.003 173.12 121.54 241.85 8.55 17.014 7.671 37.243-2.323 53.45-9.994 16.208-27.674 26.077-46.715 26.077h-243.09c-19.041 0-36.721-9.869-46.715-26.077-9.994-16.207-10.873-36.436-2.323-53.45 34.542-68.731 84.588-168.31 121.54-241.85z" fill="#ffeb00"/> </g> <path d="m177.28 78.198-135.95 270.51c-12.679 25.229-11.375 55.228 3.445 79.262s41.038 38.67 69.275 38.67h271.9c28.237 0 54.455-14.636 69.275-38.67s16.124-54.033 3.445-79.262c-38.635-76.876-94.611-188.26-135.95-270.51-13.816-27.491-41.953-44.841-72.72-44.841s-58.904 17.35-72.72 44.841zm35.741 17.961c7.025-13.979 21.333-22.802 36.979-22.802s29.954 8.823 36.979 22.802c41.337 82.254 97.314 193.64 135.95 270.51 6.448 12.83 5.785 28.085-1.751 40.306-7.536 12.222-20.869 19.665-35.228 19.665h-271.9c-14.359 0-27.692-7.443-35.228-19.665-7.536-12.221-8.199-27.476-1.751-40.306l135.95-270.51zm56.979 275.44v-1.878c0-11.038-8.962-20-20-20s-20 8.962-20 20v1.878c0 11.038 8.962 20 20 20s20-8.962 20-20zm-40-221.03v162.34c0 11.039 8.962 20 20 20s20-8.961 20-20v-162.34c0-11.038-8.962-20-20-20s-20 8.962-20 20z"/> </svg>